<?xml version="1.0" encoding="UTF-8" standalone="no"?>
<!-- Created with Inkscape (http://www.inkscape.org/) -->

<svg
   xmlns:dc="http://purl.org/dc/elements/1.1/"
   xmlns:cc="http://creativecommons.org/ns#"
   xmlns:rdf="http://www.w3.org/1999/02/22-rdf-syntax-ns#"
   xmlns:svg="http://www.w3.org/2000/svg"
   xmlns="http://www.w3.org/2000/svg"
   xmlns:sodipodi="http://sodipodi.sourceforge.net/DTD/sodipodi-0.dtd"
   xmlns:inkscape="http://www.inkscape.org/namespaces/inkscape"
   width="120mm"
   height="25mm"
   viewBox="0 0 425.19688 88.582678"
   id="svg2"
   version="1.1"
   inkscape:version="0.91 r"
   sodipodi:docname="objecten.svg">
  <defs
     id="defs4">
    <inkscape:perspective
       sodipodi:type="inkscape:persp3d"
       inkscape:vp_x="-34.31696 : 123.29637 : 1"
       inkscape:vp_y="0 : 999.99996 : 0"
       inkscape:vp_z="307.50534 : 123.29638 : 1"
       inkscape:persp3d-origin="404.02954 : 213.38634 : 1"
       id="perspective6030" />
  </defs>
  <sodipodi:namedview
     id="base"
     pagecolor="#ffffff"
     bordercolor="#666666"
     borderopacity="1.0"
     inkscape:pageopacity="0.0"
     inkscape:pageshadow="2"
     inkscape:zoom="1.979899"
     inkscape:cx="171.47561"
     inkscape:cy="160.30388"
     inkscape:document-units="mm"
     inkscape:current-layer="layer1"
     showgrid="false"
     inkscape:window-width="1920"
     inkscape:window-height="1028"
     inkscape:window-x="0"
     inkscape:window-y="0"
     inkscape:window-maximized="1">
    <inkscape:grid
       type="xygrid"
       id="grid4136"
       units="mm"
       spacingx="3.5433071"
       spacingy="3.5433072"
       empspacing="10" />
  </sodipodi:namedview>
  <metadata
     id="metadata7">
    <rdf:RDF>
      <cc:Work
         rdf:about="">
        <dc:format>image/svg+xml</dc:format>
        <dc:type
           rdf:resource="http://purl.org/dc/dcmitype/StillImage" />
        <dc:title></dc:title>
      </cc:Work>
    </rdf:RDF>
  </metadata>
  <g
     inkscape:label="Layer 1"
     inkscape:groupmode="layer"
     id="layer1"
     transform="translate(0,-963.77953)">
    <rect
       style="fill:#ff0000;fill-opacity:1;stroke:#000000;stroke-width:1.77165365;stroke-miterlimit:4;stroke-dasharray:none"
       id="rect6132"
       width="56.789665"
       height="35.564148"
       x="13.05005"
       y="990.54095" />
    <g
       sodipodi:type="inkscape:box3d"
       id="g6134"
       style="fill:#ff0000;fill-opacity:1;stroke:#000000;stroke-width:3.54330707;stroke-miterlimit:4;stroke-dasharray:none"
       inkscape:perspectiveID="#perspective6030"
       inkscape:corner0="3.0041608 : -0.33496693 : 0 : 1"
       inkscape:corner7="2.2591462 : -0.4412854 : 0.77023816 : 1">
      <path
         sodipodi:type="inkscape:box3dside"
         id="path6144"
         style="fill:#afafde;fill-rule:evenodd;stroke:none;stroke-width:1px;stroke-linecap:butt;stroke-linejoin:round;stroke-opacity:1"
         inkscape:box3dsidetype="13"
         d="m 75.155784,1016.7735 25.024586,20.0492 39.63126,-20.5983 -27.17166,-13.6005 z"
         points="100.18037,1036.8227 139.81163,1016.2244 112.63997,1002.6239 75.155784,1016.7735 " />
      <path
         sodipodi:type="inkscape:box3dside"
         id="path6136"
         style="fill:#353564;fill-rule:evenodd;stroke:none;stroke-width:1px;stroke-linecap:butt;stroke-linejoin:round;stroke-opacity:1"
         inkscape:box3dsidetype="6"
         d="m 75.155784,990.22146 0,26.55204 37.484186,-14.1496 0,-22.26848 z"
         points="75.155784,1016.7735 112.63997,1002.6239 112.63997,980.35542 75.155784,990.22146 " />
      <path
         sodipodi:type="inkscape:box3dside"
         id="path6146"
         style="fill:#e9e9ff;fill-rule:evenodd;stroke:none;stroke-width:1px;stroke-linecap:butt;stroke-linejoin:round;stroke-opacity:1"
         inkscape:box3dsidetype="11"
         d="m 112.63997,980.35542 27.17166,9.48321 0,26.38577 -27.17166,-13.6005 z"
         points="139.81163,989.83863 139.81163,1016.2244 112.63997,1002.6239 112.63997,980.35542 " />
      <path
         sodipodi:type="inkscape:box3dside"
         id="path6138"
         style="fill:#4d4d9f;fill-rule:evenodd;stroke:none;stroke-width:1px;stroke-linecap:butt;stroke-linejoin:round;stroke-opacity:1"
         inkscape:box3dsidetype="5"
         d="m 75.155784,990.22146 25.024586,13.97964 39.63126,-14.36247 -27.17166,-9.48321 z"
         points="100.18037,1004.2011 139.81163,989.83863 112.63997,980.35542 75.155784,990.22146 " />
      <path
         sodipodi:type="inkscape:box3dside"
         id="path6142"
         style="fill:#d7d7ff;fill-rule:evenodd;stroke:none;stroke-width:1px;stroke-linecap:butt;stroke-linejoin:round;stroke-opacity:1"
         inkscape:box3dsidetype="14"
         d="m 100.18037,1004.2011 0,32.6216 39.63126,-20.5983 0,-26.38577 z"
         points="100.18037,1036.8227 139.81163,1016.2244 139.81163,989.83863 100.18037,1004.2011 " />
      <path
         sodipodi:type="inkscape:box3dside"
         id="path6140"
         style="fill:#8686bf;fill-rule:evenodd;stroke:none;stroke-width:1px;stroke-linecap:butt;stroke-linejoin:round;stroke-opacity:1"
         inkscape:box3dsidetype="3"
         d="m 75.155784,990.22146 25.024586,13.97964 0,32.6216 -25.024586,-20.0492 z"
         points="100.18037,1004.2011 100.18037,1036.8227 75.155784,1016.7735 75.155784,990.22146 " />
    </g>
    <ellipse
       style="fill:#ff0000;fill-opacity:1;stroke:#000000;stroke-width:1.77165365;stroke-miterlimit:4;stroke-dasharray:none"
       id="path6148"
       cx="176.45818"
       cy="1012.8875"
       rx="28.703814"
       ry="18.097214" />
    <path
       sodipodi:type="star"
       style="fill:#ff0000;fill-opacity:1;stroke:#000000;stroke-width:2.13232946;stroke-miterlimit:4;stroke-dasharray:none"
       id="path6150"
       sodipodi:sides="5"
       sodipodi:cx="63.411091"
       sodipodi:cy="948.41754"
       sodipodi:r1="35.254692"
       sodipodi:r2="17.627346"
       sodipodi:arg1="0.3686959"
       sodipodi:arg2="0.99701443"
       inkscape:flatsided="false"
       inkscape:rounded="0"
       inkscape:randomized="0"
       d="m 96.296602,961.12331 -23.317173,2.09863 -11.490057,20.39788 -9.201323,-21.52744 -22.950157,-4.6244 17.630443,-15.40332 -2.69392,-23.25592 20.097535,12.00766 21.285224,-9.74854 -5.209484,22.82446 z"
       inkscape:transform-center-x="2.7567939"
       inkscape:transform-center-y="-0.40968851"
       transform="matrix(0.93419776,0.21655814,-0.30248408,0.66882239,476.02054,364.31011)" />
    <path
       inkscape:transform-center-y="2.009791"
       inkscape:transform-center-x="0.51710786"
       d="M 68.69037,954.37737 45.168356,969.58006 23.441043,951.90718 33.53484,925.78206 61.500462,927.30872 Z"
       inkscape:randomized="0"
       inkscape:rounded="0"
       inkscape:flatsided="true"
       sodipodi:arg2="0.99701443"
       sodipodi:arg1="0.3686959"
       sodipodi:r2="11.9122"
       sodipodi:r1="23.8244"
       sodipodi:cy="945.79108"
       sodipodi:cx="46.467014"
       sodipodi:sides="5"
       id="path6152"
       style="fill:#ff0000;fill-opacity:1;stroke:#000000;stroke-width:1.51347756;stroke-miterlimit:4;stroke-dasharray:none"
       sodipodi:type="star"
       transform="matrix(1.2885439,0,0,1.063424,255.06968,2.4092994)" />
    <path
       sodipodi:type="spiral"
       style="fill:none;fill-rule:evenodd;stroke:#000000;stroke-width:1.77165365;stroke-linecap:butt;stroke-linejoin:miter;stroke-miterlimit:4;stroke-dasharray:none;stroke-opacity:1"
       id="path6154"
       sodipodi:cx="380.5285"
       sodipodi:cy="1008.1304"
       sodipodi:expansion="1"
       sodipodi:revolution="3"
       sodipodi:radius="34.3489"
       sodipodi:argument="-18.504553"
       sodipodi:t0="0"
       d="m 380.5285,1008.1304 c 1.62072,0.5824 0.0145,2.472 -0.96806,2.6937 -2.66263,0.6008 -4.50512,-2.3041 -4.41942,-4.6299 0.15331,-4.1603 4.46041,-6.66894 8.29168,-6.145 5.62254,0.7688 8.87729,6.6388 7.87076,11.9534 -1.34154,7.0836 -8.82425,11.1034 -15.61528,9.5965 -8.54582,-1.8963 -13.33837,-11.0127 -11.32211,-19.2771 2.44196,-10.00928 13.20286,-15.57854 22.93889,-13.0478 11.47357,2.98238 17.82188,15.3941 14.77346,26.6007 -3.51953,12.9385 -17.58595,20.0674 -30.2625,16.4991 -14.40391,-4.0545 -22.31441,-19.7783 -18.22481,-33.92428 4.58792,-15.86966 21.97106,-24.56252 37.58611,-19.95048 17.33566,5.12023 26.81144,24.16406 21.67615,41.24796" />
  </g>
</svg>
