<?xml version="1.0" encoding="UTF-8" standalone="no"?>
<!-- Created with Inkscape (http://www.inkscape.org/) -->

<svg
   xmlns:dc="http://purl.org/dc/elements/1.1/"
   xmlns:cc="http://creativecommons.org/ns#"
   xmlns:rdf="http://www.w3.org/1999/02/22-rdf-syntax-ns#"
   xmlns:svg="http://www.w3.org/2000/svg"
   xmlns="http://www.w3.org/2000/svg"
   xmlns:sodipodi="http://sodipodi.sourceforge.net/DTD/sodipodi-0.dtd"
   xmlns:inkscape="http://www.inkscape.org/namespaces/inkscape"
   width="354.33069"
   height="354.33069"
   id="svg3009"
   version="1.1"
   inkscape:version="0.48.2 r9819"
   sodipodi:docname="New document 1">
  <defs
     id="defs3011" />
  <sodipodi:namedview
     id="base"
     pagecolor="#ffffff"
     bordercolor="#666666"
     borderopacity="1.0"
     inkscape:pageopacity="0.0"
     inkscape:pageshadow="2"
     inkscape:zoom="0.98994949"
     inkscape:cx="139.96226"
     inkscape:cy="259.378"
     inkscape:document-units="mm"
     inkscape:current-layer="layer1"
     showgrid="false"
     units="mm"
     inkscape:window-width="1280"
     inkscape:window-height="962"
     inkscape:window-x="-8"
     inkscape:window-y="-8"
     inkscape:window-maximized="1">
    <inkscape:grid
       type="xygrid"
       id="grid3017"
       empspacing="5"
       visible="true"
       enabled="true"
       snapvisiblegridlinesonly="true"
       units="mm"
       spacingx="1mm"
       spacingy="1mm"
       dotted="false" />
  </sodipodi:namedview>
  <metadata
     id="metadata3014">
    <rdf:RDF>
      <cc:Work
         rdf:about="">
        <dc:format>image/svg+xml</dc:format>
        <dc:type
           rdf:resource="http://purl.org/dc/dcmitype/StillImage" />
        <dc:title></dc:title>
      </cc:Work>
    </rdf:RDF>
  </metadata>
  <g
     inkscape:label="Layer 1"
     inkscape:groupmode="layer"
     id="layer1"
     transform="translate(0,-698.03149)">
    <path
       style="fill:#5de22f;fill-opacity:1;fill-rule:evenodd;stroke:#000000;stroke-width:3.54330707;stroke-linecap:square;stroke-linejoin:miter;stroke-miterlimit:4;stroke-opacity:1;stroke-dasharray:none;stroke-dashoffset:0"
       d="m 178.8455,726.14789 -20.96312,136.1359 -87.092765,0 0,-123.5422 -16.736688,0 0,123.5422 -36.798173,0 0,111.82189 15.975929,0 c 0,26.46422 21.461312,47.92362 47.927789,47.92362 26.466478,0 47.899608,-21.4594 47.899608,-47.92362 l 54.60556,0 c 12.32724,28.20032 40.45436,47.92362 73.20188,47.92362 44.11079,0 79.85147,-35.76573 79.85147,-79.87273 0,-20.91195 -8.03311,-39.9415 -21.18854,-54.17826 L 336.71699,750.49007 178.8455,726.14789 z m 8.22746,8.73389 91.62914,14.76308 -16.03228,99.62262 c -1.92076,-0.11824 -3.85377,-0.16904 -5.8043,-0.16904 -33.68903,0 -63.20367,17.87957 -79.54154,44.68368 l -15.44058,-2.4793 25.18956,-156.42104 z m 100.19472,15.94638 38.96775,6.28276 -17.38475,107.84938 c -11.06931,-7.46691 -23.82869,-12.62663 -37.5871,-14.76308 l 16.0041,-99.36906 z"
       id="rect3770"
       inkscape:connector-curvature="0" />
  </g>
</svg>
